<svg xmlns="http://www.w3.org/2000/svg" viewBox="0 0 32 32" fill="none">
  <circle cx="16" cy="16" r="16" fill="#000"/>
  <defs>
    <linearGradient id="a" x1="6" y1="24.5" x2="26" y2="7.5" gradientUnits="userSpaceOnUse">
      <stop stop-color="#9945FF"/>
      <stop offset=".5" stop-color="#14F195"/>
      <stop offset="1" stop-color="#00C2FF"/>
    </linearGradient>
  </defs>
  <path d="M9.06 20.79a.52.52 0 01.37-.15h15.92a.26.26 0 01.18.45l-3.1 3.1a.52.52 0 01-.37.15H6.14a.26.26 0 01-.18-.45l3.1-3.1z" fill="url(#a)"/>
  <path d="M9.06 7.82a.53.53 0 01.37-.16h15.92a.26.26 0 01.18.45l-3.1 3.1a.52.52 0 01-.37.15H6.14a.26.26 0 01-.18-.45l3.1-3.09z" fill="url(#a)"/>
  <path d="M22.94 14.26a.52.52 0 00-.37-.15H6.65a.26.26 0 00-.18.45l3.1 3.1a.52.52 0 00.37.15h15.92a.26.26 0 00.18-.45l-3.1-3.1z" fill="url(#a)"/>
</svg>
